<svg xmlns="http://www.w3.org/2000/svg" xmlns:xlink="http://www.w3.org/1999/xlink" version="1.1" width="256" height="256" viewBox="0 0 100 100">
	<defs>
		<g id="background">
			<path fill="url(#background-gradient)" stroke="none" d=" M 92.15 76.8 Q 100 64.65 100 50 100 29.3 85.35 14.65 70.6 0 50 0 29.3 0 14.65 14.65 0 29.3 0 50 0 64.55 7.75 76.8 14.55 87.5 25.45 93.55 36.9 100 50 100 63.1 100 74.4 93.55 85.35 87.5 92.15 76.8 Z"/>
		</g>
		<g id="middle-1">
			<path fill="#DFC642" stroke="none" d=" M 92.05 76.95 Q 92.1 76.9 92.15 76.8 L 7.75 76.8 Q 7.75 76.9 7.85 76.95 14.6 87.55 25.45 93.55 36.9 100 50 100 63.1 100 74.4 93.55 85.25 87.55 92.05 76.95 Z"/>
		</g>
		<mask id="mask">
			<path fill="#FFFFFF" stroke="none" d=" M 92.15 76.8 Q 100 64.65 100 50 100 29.3 85.35 14.65 70.6 0 50 0 29.3 0 14.65 14.65 0 29.3 0 50 0 64.55 7.75 76.8 14.55 87.5 25.45 93.55 36.9 100 50 100 63.1 100 74.4 93.55 85.35 87.5 92.15 76.8 Z"/>
		</mask>
		<linearGradient id="background-gradient" x1="0" y1="0" y2="1" x2="0" >
			<stop stop-color="#057c95" offset="0%"/>
			<stop stop-color="#042449" offset="100%"/>
		</linearGradient>
		<g transform="translate(-92 -95.9999885559082)" id="picture">
			<path d="M139.705 187.118c-.2 0-.2.2-.4.2h-.798c-.998 0-1.996-.2-3.393-.4-1.198-.399-2.395-.599-3.593-1.197-1.198-.4-2.196-.998-2.994-1.398-.798-.598-1.397-.998-1.597-1.397 0-.998-.2-1.996-.2-2.994v-2.994c0-7.585.6-15.569 1.597-23.952 1.198-8.383 2.994-17.365 5.59-26.946.199-.998.598-2.196.798-3.593.399-1.397.598-2.994.998-4.79-1.597 1.397-3.593 3.393-5.789 6.187-2.195 2.795-4.59 6.188-7.185 9.98-2.396 3.793-4.99 8.184-7.386 12.775-2.594 4.59-4.79 9.181-6.786 13.972-1.996 4.79-3.793 9.381-5.19 14.172-1.397 4.59-2.395 8.982-2.794 12.974-3.194-.998-5.589-1.996-6.787-2.795C92.6 183.525 92 182.327 92 181.13c0-1.198.4-2.994 1.198-5.19.798-2.195 1.796-4.99 3.193-7.984 1.397-2.994 2.994-6.587 4.99-10.38 1.996-3.792 4.192-7.784 6.587-12.175 2.794-4.99 5.39-9.58 7.984-13.972 2.595-4.391 5.19-8.383 7.785-11.776 2.594-3.593 4.99-6.587 7.385-9.182 2.395-2.595 4.79-4.59 7.185-5.988.998 0 2.196.2 3.793.798 1.597.4 3.193.998 4.79 1.797 1.597.599 2.994 1.397 3.992 2.195 1.198.799 1.797 1.398 1.996 1.797-.998 1.996-1.996 4.79-3.393 8.583-1.198 3.792-2.595 8.183-3.992 12.974-1.397 4.79-2.595 9.98-3.792 15.37-1.198 5.388-2.196 10.578-2.795 15.568 1.597-3.792 3.393-7.585 5.39-11.777s4.191-8.183 6.586-12.175c2.396-3.992 4.591-7.785 7.186-11.577 2.395-3.792 4.79-7.186 7.186-10.38 2.395-3.193 4.59-5.987 6.586-8.183 1.996-2.395 3.793-3.992 5.39-5.19.998 0 2.195.2 3.792.799 1.597.399 3.194.998 4.79 1.796 1.597.6 2.994 1.397 4.192 2.196 1.198.798 1.797 1.397 1.996 1.796-2.196 3.793-3.992 8.583-5.788 14.172a206.158 206.158 0 0 0-4.192 17.565c-1.198 6.187-1.996 12.175-2.595 18.363a161.625 161.625 0 0 0-.798 16.168v4.99c0 1.796 0 3.393.2 5.39-.999 0-1.997-.2-3.394-.4s-2.595-.599-3.792-.998c-1.198-.4-2.395-.799-3.393-1.397-.998-.6-1.797-.998-2.196-1.597 0-.998-.2-1.996-.2-2.994v-2.994c0-7.585.6-15.57 1.597-23.952 1.198-8.384 2.994-17.366 5.589-26.946.2-.998.599-2.196.998-3.793.4-1.597.599-3.393.998-5.19-1.996.999-3.992 2.795-6.587 5.39-2.395 2.794-4.79 5.988-7.385 9.78-2.395 3.793-4.99 8.184-7.385 12.775a229.127 229.127 0 0 0-6.587 14.37c-1.996 4.791-3.593 9.781-4.99 14.572s-1.996 8.982-2.395 12.974z"/>
		</g>
		<linearGradient id="picture-gradient" x1="0" y1="0" y2="1" x2="0" >
			<stop stop-color="#ffffff" offset="0%"/>
			<stop stop-color="#ffffff" offset="100%"/>
		</linearGradient>
	</defs>
	<use xlink:href="#background" fill="url(#background-gradient)" />
	<use xlink:href="#middle-1" />
	<g mask="url(#mask)">
		<g transform="translate(50 50) translate(0 0) scale(0.6) translate(-50 -50)">
			<use xlink:href="#picture" fill="url(#picture-gradient)"  />
		</g>
	</g>
</svg>
